<svg class="t-sociallinks__svg" version="1.1" id="Layer_1" xmlns="http://www.w3.org/2000/svg" xmlns:xlink="http://www.w3.org/1999/xlink" x="0px" y="0px" width="48px" height="48px" viewBox="0 0 48 48" enable-background="new 0 0 48 48" xml:space="preserve"><desc>Twitter</desc><path d="M47.762,24c0,13.121-10.639,23.76-23.761,23.76S0.24,37.121,0.24,24c0-13.124,10.639-23.76,23.761-23.76 S47.762,10.876,47.762,24 M38.031,12.375c-1.177,0.7-2.481,1.208-3.87,1.481c-1.11-1.186-2.694-1.926-4.455-1.926 c-3.364,0-6.093,2.729-6.093,6.095c0,0.478,0.054,0.941,0.156,1.388c-5.063-0.255-9.554-2.68-12.559-6.367 c-0.524,0.898-0.825,1.947-0.825,3.064c0,2.113,1.076,3.978,2.711,5.07c-0.998-0.031-1.939-0.306-2.761-0.762v0.077 c0,2.951,2.1,5.414,4.889,5.975c-0.512,0.14-1.05,0.215-1.606,0.215c-0.393,0-0.775-0.039-1.146-0.109 c0.777,2.42,3.026,4.182,5.692,4.232c-2.086,1.634-4.712,2.607-7.567,2.607c-0.492,0-0.977-0.027-1.453-0.084 c2.696,1.729,5.899,2.736,9.34,2.736c11.209,0,17.337-9.283,17.337-17.337c0-0.263-0.004-0.527-0.017-0.789 c1.19-0.858,2.224-1.932,3.039-3.152c-1.091,0.485-2.266,0.811-3.498,0.958C36.609,14.994,37.576,13.8,38.031,12.375"></path></svg>